<svg xmlns="http://www.w3.org/2000/svg" xmlns:xlink="http://www.w3.org/1999/xlink" width="165" zoomAndPan="magnify" viewBox="0 0 123.75 33.749998" height="45" preserveAspectRatio="xMidYMid meet" version="1.0"><defs><g/></defs><path fill="#ffffff" d="M 99.394531 18.605469 C 99.386719 17.085938 99.371094 14.59375 99.367188 13.074219 C 99.359375 11.550781 100.496094 10.925781 101.796875 11.679688 C 103.097656 12.433594 105.261719 13.667969 106.5625 14.421875 C 107.863281 15.175781 107.890625 16.417969 106.597656 17.1875 C 105.304688 17.953125 103.121094 19.210938 101.828125 19.976562 C 100.535156 20.746094 99.402344 20.128906 99.394531 18.605469 Z M 99.394531 18.605469 " fill-opacity="1" fill-rule="nonzero"/><path fill="#8cc640" d="M 96.65625 14.703125 C 96.746094 9.347656 98.125 6.839844 99.839844 5.628906 C 100.800781 5.085938 101.589844 4.984375 102.324219 4.96875 C 102.867188 4.953125 103.390625 5 103.894531 5.089844 C 105.488281 5.292969 108.996094 6.351562 112.335938 9.433594 C 110.5625 4.898438 105.152344 1.800781 100.195312 2.523438 C 96.386719 3.078125 93.082031 6.199219 92.761719 13.011719 C 92.484375 18.855469 95.074219 22.566406 97.058594 22.058594 C 96.847656 19.257812 96.625 16.613281 96.65625 14.703125 Z M 96.65625 14.703125 " fill-opacity="1" fill-rule="nonzero"/><path fill="#f15b26" d="M 104.183594 21.273438 C 99.515625 23.894531 96.65625 23.972656 94.746094 23.097656 C 93.792969 22.539062 93.304688 21.914062 92.917969 21.285156 C 92.632812 20.824219 92.410156 20.351562 92.238281 19.867188 C 91.605469 18.386719 90.75 14.824219 91.730469 10.386719 C 88.710938 14.203125 88.761719 20.4375 91.882812 24.355469 C 94.28125 27.367188 98.644531 28.648438 104.683594 25.492188 C 109.871094 22.785156 111.769531 18.675781 110.328125 17.21875 C 108.019531 18.8125 105.847656 20.339844 104.183594 21.273438 Z M 104.183594 21.273438 " fill-opacity="1" fill-rule="nonzero"/><path fill="#29aae2" d="M 106.148438 11.488281 C 110.722656 14.273438 112.191406 16.730469 112.363281 18.824219 C 112.347656 19.929688 112.035156 20.660156 111.679688 21.304688 C 111.417969 21.78125 111.113281 22.207031 110.785156 22.597656 C 109.800781 23.871094 107.117188 26.367188 102.769531 27.6875 C 107.574219 28.449219 112.980469 25.347656 114.863281 20.703125 C 116.3125 17.136719 115.289062 12.703125 109.578125 8.980469 C 104.675781 5.789062 100.167969 6.148438 99.605469 8.117188 C 102.125 9.351562 104.519531 10.496094 106.148438 11.488281 Z M 106.148438 11.488281 " fill-opacity="1" fill-rule="nonzero"/><g fill="#ffffff" fill-opacity="1"><g transform="translate(21.027669, 19.880872)"><g><path d="M 12.46875 -14.921875 L 11.84375 -11.65625 L 6.65625 -11.65625 L 6.078125 -8.671875 L 11.078125 -8.671875 L 10.484375 -5.5625 L 5.484375 -5.5625 L 4.40625 0 L 0.6875 0 L 3.53125 -14.921875 Z M 12.46875 -14.921875 "/></g></g></g><g fill="#ffffff" fill-opacity="1"><g transform="translate(31.848708, 19.880872)"><g><path d="M 6.203125 0.28125 C 5.148438 0.28125 4.242188 0.0859375 3.484375 -0.296875 C 2.722656 -0.679688 2.140625 -1.210938 1.734375 -1.890625 C 1.328125 -2.578125 1.125 -3.367188 1.125 -4.265625 C 1.125 -4.660156 1.164062 -5.078125 1.25 -5.515625 L 2.328125 -11.078125 L 5.859375 -11.078125 L 4.703125 -5.078125 C 4.679688 -4.847656 4.671875 -4.691406 4.671875 -4.609375 C 4.671875 -4.109375 4.816406 -3.695312 5.109375 -3.375 C 5.410156 -3.0625 5.8125 -2.90625 6.3125 -2.90625 C 6.832031 -2.90625 7.273438 -3.082031 7.640625 -3.4375 C 8.003906 -3.789062 8.234375 -4.226562 8.328125 -4.75 L 9.53125 -11.078125 L 13.078125 -11.078125 L 11.875 -4.640625 C 11.582031 -3.179688 10.960938 -1.992188 10.015625 -1.078125 C 9.066406 -0.171875 7.796875 0.28125 6.203125 0.28125 Z M 6.203125 0.28125 "/></g></g></g><g fill="#ffffff" fill-opacity="1"><g transform="translate(44.31001, 19.880872)"><g><path d="M 6.203125 -7.953125 L 5.578125 -4.796875 C 5.554688 -4.628906 5.546875 -4.507812 5.546875 -4.4375 C 5.546875 -4.039062 5.675781 -3.726562 5.9375 -3.5 C 6.207031 -3.269531 6.566406 -3.15625 7.015625 -3.15625 L 7.84375 -3.15625 L 7.21875 0 L 5.84375 0 C 4.570312 0 3.585938 -0.3125 2.890625 -0.9375 C 2.203125 -1.570312 1.859375 -2.425781 1.859375 -3.5 C 1.859375 -3.78125 1.890625 -4.113281 1.953125 -4.5 L 2.640625 -7.953125 L 0.828125 -7.953125 L 1.453125 -11.078125 L 3.265625 -11.078125 L 3.84375 -14.03125 L 7.390625 -14.03125 L 6.8125 -11.078125 L 9.375 -11.078125 L 8.765625 -7.953125 Z M 6.203125 -7.953125 "/></g></g></g><g fill="#ffffff" fill-opacity="1"><g transform="translate(52.681306, 19.880872)"><g><path d="M 6.203125 0.28125 C 5.148438 0.28125 4.242188 0.0859375 3.484375 -0.296875 C 2.722656 -0.679688 2.140625 -1.210938 1.734375 -1.890625 C 1.328125 -2.578125 1.125 -3.367188 1.125 -4.265625 C 1.125 -4.660156 1.164062 -5.078125 1.25 -5.515625 L 2.328125 -11.078125 L 5.859375 -11.078125 L 4.703125 -5.078125 C 4.679688 -4.847656 4.671875 -4.691406 4.671875 -4.609375 C 4.671875 -4.109375 4.816406 -3.695312 5.109375 -3.375 C 5.410156 -3.0625 5.8125 -2.90625 6.3125 -2.90625 C 6.832031 -2.90625 7.273438 -3.082031 7.640625 -3.4375 C 8.003906 -3.789062 8.234375 -4.226562 8.328125 -4.75 L 9.53125 -11.078125 L 13.078125 -11.078125 L 11.875 -4.640625 C 11.582031 -3.179688 10.960938 -1.992188 10.015625 -1.078125 C 9.066406 -0.171875 7.796875 0.28125 6.203125 0.28125 Z M 6.203125 0.28125 "/></g></g></g><g fill="#ffffff" fill-opacity="1"><g transform="translate(65.142608, 19.880872)"><g><path d="M 10.015625 -11.203125 L 9.421875 -8.0625 L 7.828125 -8.0625 C 7.085938 -8.0625 6.453125 -7.851562 5.921875 -7.4375 C 5.398438 -7.019531 5.066406 -6.453125 4.921875 -5.734375 L 3.84375 0 L 0.28125 0 L 2.421875 -11.078125 L 5.71875 -11.078125 L 5.515625 -10.078125 C 6.285156 -10.828125 7.300781 -11.203125 8.5625 -11.203125 Z M 10.015625 -11.203125 "/></g></g></g><g fill="#ffffff" fill-opacity="1"><g transform="translate(73.471305, 19.880872)"><g><path d="M 7.046875 -11.359375 C 8.117188 -11.359375 9.066406 -11.125 9.890625 -10.65625 C 10.710938 -10.195312 11.347656 -9.570312 11.796875 -8.78125 C 12.253906 -7.988281 12.484375 -7.113281 12.484375 -6.15625 C 12.484375 -5.570312 12.40625 -5.019531 12.25 -4.5 L 4 -4.5 C 4.09375 -3.8125 4.335938 -3.285156 4.734375 -2.921875 C 5.128906 -2.566406 5.65625 -2.390625 6.3125 -2.390625 C 6.800781 -2.390625 7.238281 -2.492188 7.625 -2.703125 C 8.007812 -2.921875 8.289062 -3.1875 8.46875 -3.5 L 11.953125 -3.5 C 11.503906 -2.414062 10.765625 -1.515625 9.734375 -0.796875 C 8.703125 -0.078125 7.472656 0.28125 6.046875 0.28125 C 5.015625 0.28125 4.082031 0.0625 3.25 -0.375 C 2.414062 -0.820312 1.757812 -1.4375 1.28125 -2.21875 C 0.8125 -3.007812 0.578125 -3.90625 0.578125 -4.90625 C 0.578125 -6.019531 0.851562 -7.070312 1.40625 -8.0625 C 1.957031 -9.050781 2.726562 -9.847656 3.71875 -10.453125 C 4.707031 -11.054688 5.816406 -11.359375 7.046875 -11.359375 Z M 6.921875 -8.671875 C 6.296875 -8.671875 5.757812 -8.492188 5.3125 -8.140625 C 4.863281 -7.785156 4.53125 -7.3125 4.3125 -6.71875 L 9.171875 -6.71875 C 9.117188 -7.300781 8.898438 -7.769531 8.515625 -8.125 C 8.140625 -8.488281 7.609375 -8.671875 6.921875 -8.671875 Z M 6.921875 -8.671875 "/></g></g></g><g fill="#8dc641" fill-opacity="1"><g transform="translate(23.331851, 24.8342)"><g><path d="M 2.875 -0.703125 L 3.25 -2.828125 L 4.015625 -2.828125 L 3.4375 0 L 2.421875 0 L 2.015625 -1.546875 L 1.625 0 L 0.609375 0 L 0.03125 -2.828125 L 0.796875 -2.828125 L 1.171875 -0.703125 L 1.6875 -2.828125 L 2.34375 -2.828125 Z M 2.875 -0.703125 "/></g></g></g><g fill="#8dc641" fill-opacity="1"><g transform="translate(28.479662, 24.8342)"><g><path d="M 3.015625 0 L 2.21875 0 L 2.015625 -0.578125 L 1.015625 -0.578125 L 0.828125 0 L 0.03125 0 L 0.953125 -2.828125 L 2.078125 -2.828125 Z M 1.890625 -1.15625 L 1.515625 -2.3125 L 1.140625 -1.15625 Z M 1.890625 -1.15625 "/></g></g></g><g fill="#8dc641" fill-opacity="1"><g transform="translate(32.61271, 24.8342)"><g><path d="M 1.578125 0 L 0.828125 0 L 1.1875 -2.25 L 0.375 -2.25 L 0.453125 -2.828125 L 2.828125 -2.828125 L 2.75 -2.25 L 1.9375 -2.25 Z M 1.578125 0 "/></g></g></g><g fill="#8dc641" fill-opacity="1"><g transform="translate(36.20307, 24.8342)"><g><path d="M 1.59375 -0.546875 C 1.789062 -0.546875 1.941406 -0.582031 2.046875 -0.65625 C 2.160156 -0.726562 2.21875 -0.832031 2.21875 -0.96875 L 2.984375 -0.96875 C 2.929688 -0.664062 2.78125 -0.421875 2.53125 -0.234375 C 2.289062 -0.0546875 1.976562 0.03125 1.59375 0.03125 C 1.101562 0.03125 0.722656 -0.128906 0.453125 -0.453125 C 0.234375 -0.710938 0.125 -1.023438 0.125 -1.390625 C 0.125 -1.765625 0.234375 -2.09375 0.453125 -2.375 C 0.722656 -2.707031 1.101562 -2.875 1.59375 -2.875 C 1.976562 -2.875 2.289062 -2.78125 2.53125 -2.59375 C 2.78125 -2.414062 2.929688 -2.175781 2.984375 -1.875 L 2.21875 -1.875 C 2.21875 -2.019531 2.160156 -2.128906 2.046875 -2.203125 C 1.941406 -2.273438 1.800781 -2.3125 1.625 -2.3125 C 1.40625 -2.3125 1.222656 -2.222656 1.078125 -2.046875 C 0.941406 -1.867188 0.875 -1.648438 0.875 -1.390625 C 0.875 -1.128906 0.9375 -0.921875 1.0625 -0.765625 C 1.195312 -0.617188 1.375 -0.546875 1.59375 -0.546875 Z M 1.59375 -0.546875 "/></g></g></g><g fill="#8dc641" fill-opacity="1"><g transform="translate(40.409209, 24.8342)"><g><path d="M 0.96875 0 L 0.234375 0 L 0.234375 -2.828125 L 0.96875 -2.828125 L 0.96875 -1.65625 L 2 -1.65625 L 2 -2.828125 L 2.734375 -2.828125 L 2.734375 0 L 2 0 L 2 -1.0625 L 0.96875 -1.0625 Z M 0.96875 0 "/></g></g></g><g fill="#27aae2" fill-opacity="1"><g transform="translate(46.892531, 24.8342)"><g><path d="M 1.703125 0 L 1.0625 -2.21875 L 0.921875 0 L 0.171875 0 L 0.265625 -1.421875 C 0.296875 -1.992188 0.320312 -2.460938 0.34375 -2.828125 L 1.609375 -2.828125 L 2.046875 -1.171875 L 2.5 -2.828125 L 3.75 -2.828125 C 3.769531 -2.460938 3.800781 -1.992188 3.84375 -1.421875 L 3.921875 0 L 3.1875 0 L 3.046875 -2.21875 L 2.40625 0 Z M 1.703125 0 "/></g></g></g><g fill="#27aae2" fill-opacity="1"><g transform="translate(52.093463, 24.8342)"><g><path d="M 1.578125 0.03125 C 1.085938 0.03125 0.710938 -0.128906 0.453125 -0.453125 C 0.234375 -0.710938 0.125 -1.023438 0.125 -1.390625 C 0.125 -1.765625 0.234375 -2.09375 0.453125 -2.375 C 0.710938 -2.707031 1.085938 -2.875 1.578125 -2.875 C 2.066406 -2.875 2.445312 -2.707031 2.71875 -2.375 C 2.925781 -2.101562 3.03125 -1.773438 3.03125 -1.390625 C 3.03125 -1.023438 2.925781 -0.710938 2.71875 -0.453125 C 2.445312 -0.128906 2.066406 0.03125 1.578125 0.03125 Z M 1.0625 -0.765625 C 1.1875 -0.617188 1.359375 -0.546875 1.578125 -0.546875 C 1.796875 -0.546875 1.96875 -0.617188 2.09375 -0.765625 C 2.226562 -0.921875 2.296875 -1.128906 2.296875 -1.390625 C 2.296875 -1.660156 2.234375 -1.878906 2.109375 -2.046875 C 1.984375 -2.222656 1.804688 -2.3125 1.578125 -2.3125 C 1.359375 -2.3125 1.1875 -2.222656 1.0625 -2.046875 C 0.9375 -1.878906 0.875 -1.660156 0.875 -1.390625 C 0.875 -1.128906 0.9375 -0.921875 1.0625 -0.765625 Z M 1.0625 -0.765625 "/></g></g></g><g fill="#27aae2" fill-opacity="1"><g transform="translate(56.355738, 24.8342)"><g><path d="M 0.9375 0 L 0.4375 -2.828125 L 1.234375 -2.828125 L 1.59375 -0.609375 L 2.65625 -2.828125 L 3.46875 -2.828125 L 2.0625 0 Z M 0.9375 0 "/></g></g></g><g fill="#27aae2" fill-opacity="1"><g transform="translate(60.54973, 24.8342)"><g><path d="M 0.234375 -2.828125 L 0.96875 -2.828125 L 0.96875 0 L 0.234375 0 Z M 0.234375 -2.828125 "/></g></g></g><g fill="#27aae2" fill-opacity="1"><g transform="translate(62.8532, 24.8342)"><g><path d="M 0.234375 -2.828125 L 2.359375 -2.828125 L 2.359375 -2.25 L 0.96875 -2.25 L 0.96875 -1.6875 L 2.015625 -1.6875 L 2.015625 -1.109375 L 0.96875 -1.109375 L 0.96875 -0.5625 L 2.359375 -0.5625 L 2.359375 0 L 0.234375 0 Z M 0.234375 -2.828125 "/></g></g></g><g fill="#f15b27" fill-opacity="1"><g transform="translate(70.57178, 24.8342)"><g><path d="M 0.234375 -2.828125 L 2.34375 -2.828125 L 2.34375 -2.25 L 0.96875 -2.25 L 0.96875 -1.546875 L 2.15625 -1.546875 L 2.15625 -0.96875 L 0.96875 -0.96875 L 0.96875 0 L 0.234375 0 Z M 0.234375 -2.828125 "/></g></g></g><g fill="#f15b27" fill-opacity="1"><g transform="translate(74.124412, 24.8342)"><g><path d="M 2.96875 -1.828125 C 2.9375 -1.660156 2.863281 -1.492188 2.75 -1.328125 C 2.644531 -1.171875 2.503906 -1.046875 2.328125 -0.953125 L 2.625 0 L 1.796875 0 L 1.546875 -0.828125 L 1.09375 -0.828125 L 0.96875 0 L 0.234375 0 L 0.671875 -2.828125 L 1.984375 -2.828125 C 2.359375 -2.828125 2.625 -2.726562 2.78125 -2.53125 C 2.945312 -2.34375 3.007812 -2.109375 2.96875 -1.828125 Z M 1.1875 -1.390625 L 1.71875 -1.390625 C 1.84375 -1.390625 1.953125 -1.425781 2.046875 -1.5 C 2.140625 -1.582031 2.195312 -1.6875 2.21875 -1.8125 C 2.238281 -1.945312 2.210938 -2.050781 2.140625 -2.125 C 2.078125 -2.207031 1.984375 -2.25 1.859375 -2.25 L 1.328125 -2.25 Z M 1.1875 -1.390625 "/></g></g></g><g fill="#f15b27" fill-opacity="1"><g transform="translate(78.035452, 24.8342)"><g><path d="M 0.234375 -2.828125 L 2.359375 -2.828125 L 2.359375 -2.25 L 0.96875 -2.25 L 0.96875 -1.6875 L 2.015625 -1.6875 L 2.015625 -1.109375 L 0.96875 -1.109375 L 0.96875 -0.5625 L 2.359375 -0.5625 L 2.359375 0 L 0.234375 0 Z M 0.234375 -2.828125 "/></g></g></g><g fill="#f15b27" fill-opacity="1"><g transform="translate(81.642784, 24.8342)"><g><path d="M 0.234375 -2.828125 L 2.359375 -2.828125 L 2.359375 -2.25 L 0.96875 -2.25 L 0.96875 -1.6875 L 2.015625 -1.6875 L 2.015625 -1.109375 L 0.96875 -1.109375 L 0.96875 -0.5625 L 2.359375 -0.5625 L 2.359375 0 L 0.234375 0 Z M 0.234375 -2.828125 "/></g></g></g></svg>