<svg xmlns="http://www.w3.org/2000/svg" xmlns:xlink="http://www.w3.org/1999/xlink" width="175" zoomAndPan="magnify" viewBox="0 0 131.25 40.499999" height="54" preserveAspectRatio="xMidYMid meet" version="1.0"><defs><g/><clipPath id="47f0817243"><path d="M 101 2.140625 L 126 2.140625 L 126 27 L 101 27 Z M 101 2.140625 " clip-rule="nonzero"/></clipPath></defs><path fill="#ffffff" d="M 109.851562 22.082031 C 109.84375 20.277344 109.828125 17.324219 109.820312 15.519531 C 109.8125 13.714844 111.15625 12.96875 112.6875 13.863281 C 114.226562 14.757812 116.785156 16.222656 118.320312 17.117188 C 119.855469 18.011719 119.886719 19.484375 118.359375 20.398438 C 116.832031 21.308594 114.253906 22.796875 112.726562 23.707031 C 111.203125 24.617188 109.859375 23.886719 109.851562 22.082031 Z M 109.851562 22.082031 " fill-opacity="1" fill-rule="nonzero"/><g clip-path="url(#47f0817243)"><path fill="#8cc640" d="M 106.621094 17.453125 C 106.726562 11.097656 108.351562 8.125 110.378906 6.6875 C 111.511719 6.042969 112.445312 5.921875 113.316406 5.902344 C 113.957031 5.886719 114.570312 5.941406 115.164062 6.046875 C 117.050781 6.289062 121.195312 7.542969 125.136719 11.199219 C 123.039062 5.820312 116.652344 2.148438 110.800781 3.003906 C 106.300781 3.660156 102.398438 7.363281 102.019531 15.445312 C 101.695312 22.378906 104.753906 26.78125 107.097656 26.175781 C 106.84375 22.855469 106.582031 19.714844 106.621094 17.453125 Z M 106.621094 17.453125 " fill-opacity="1" fill-rule="nonzero"/></g><path fill="#f15b26" d="M 115.507812 25.246094 C 109.996094 28.355469 106.617188 28.445312 104.359375 27.410156 C 103.238281 26.746094 102.660156 26.003906 102.207031 25.257812 C 101.867188 24.710938 101.605469 24.148438 101.398438 23.578125 C 100.65625 21.820312 99.644531 17.59375 100.800781 12.328125 C 97.234375 16.859375 97.296875 24.253906 100.984375 28.902344 C 103.816406 32.472656 108.964844 33.992188 116.101562 30.25 C 122.226562 27.039062 124.464844 22.164062 122.765625 20.4375 C 120.039062 22.328125 117.476562 24.136719 115.507812 25.246094 Z M 115.507812 25.246094 " fill-opacity="1" fill-rule="nonzero"/><path fill="#29aae2" d="M 117.832031 13.636719 C 123.230469 16.941406 124.964844 19.855469 125.171875 22.339844 C 125.148438 23.652344 124.785156 24.519531 124.363281 25.285156 C 124.054688 25.847656 123.695312 26.355469 123.304688 26.816406 C 122.144531 28.328125 118.972656 31.285156 113.839844 32.851562 C 119.515625 33.753906 125.898438 30.078125 128.125 24.570312 C 129.832031 20.335938 128.625 15.078125 121.878906 10.664062 C 116.09375 6.878906 110.765625 7.304688 110.101562 9.640625 C 113.078125 11.101562 115.90625 12.460938 117.832031 13.636719 Z M 117.832031 13.636719 " fill-opacity="1" fill-rule="nonzero"/><g fill="#ffffff" fill-opacity="1"><g transform="translate(16.575225, 23.69281)"><g><path d="M 14.859375 -17.78125 L 14.125 -13.890625 L 7.921875 -13.890625 L 7.234375 -10.328125 L 13.203125 -10.328125 L 12.5 -6.625 L 6.53125 -6.625 L 5.25 0 L 0.8125 0 L 4.21875 -17.78125 Z M 14.859375 -17.78125 "/></g></g></g><g fill="#ffffff" fill-opacity="1"><g transform="translate(29.471078, 23.69281)"><g><path d="M 7.390625 0.328125 C 6.140625 0.328125 5.0625 0.0976562 4.15625 -0.359375 C 3.25 -0.816406 2.550781 -1.453125 2.0625 -2.265625 C 1.582031 -3.078125 1.34375 -4.015625 1.34375 -5.078125 C 1.34375 -5.554688 1.394531 -6.054688 1.5 -6.578125 L 2.765625 -13.203125 L 6.984375 -13.203125 L 5.609375 -6.046875 C 5.578125 -5.773438 5.5625 -5.585938 5.5625 -5.484375 C 5.5625 -4.890625 5.738281 -4.398438 6.09375 -4.015625 C 6.445312 -3.640625 6.921875 -3.453125 7.515625 -3.453125 C 8.140625 -3.453125 8.664062 -3.660156 9.09375 -4.078125 C 9.53125 -4.503906 9.804688 -5.03125 9.921875 -5.65625 L 11.34375 -13.203125 L 15.59375 -13.203125 L 14.140625 -5.53125 C 13.804688 -3.789062 13.070312 -2.378906 11.9375 -1.296875 C 10.800781 -0.210938 9.285156 0.328125 7.390625 0.328125 Z M 7.390625 0.328125 "/></g></g></g><g fill="#ffffff" fill-opacity="1"><g transform="translate(44.321696, 23.69281)"><g><path d="M 7.390625 -9.46875 L 6.65625 -5.71875 C 6.625 -5.507812 6.609375 -5.363281 6.609375 -5.28125 C 6.609375 -4.8125 6.765625 -4.441406 7.078125 -4.171875 C 7.398438 -3.898438 7.828125 -3.765625 8.359375 -3.765625 L 9.34375 -3.765625 L 8.609375 0 L 6.953125 0 C 5.453125 0 4.285156 -0.375 3.453125 -1.125 C 2.617188 -1.882812 2.203125 -2.898438 2.203125 -4.171875 C 2.203125 -4.503906 2.25 -4.898438 2.34375 -5.359375 L 3.15625 -9.46875 L 0.984375 -9.46875 L 1.734375 -13.203125 L 3.890625 -13.203125 L 4.578125 -16.703125 L 8.8125 -16.703125 L 8.125 -13.203125 L 11.171875 -13.203125 L 10.4375 -9.46875 Z M 7.390625 -9.46875 "/></g></g></g><g fill="#ffffff" fill-opacity="1"><g transform="translate(54.298095, 23.69281)"><g><path d="M 7.390625 0.328125 C 6.140625 0.328125 5.0625 0.0976562 4.15625 -0.359375 C 3.25 -0.816406 2.550781 -1.453125 2.0625 -2.265625 C 1.582031 -3.078125 1.34375 -4.015625 1.34375 -5.078125 C 1.34375 -5.554688 1.394531 -6.054688 1.5 -6.578125 L 2.765625 -13.203125 L 6.984375 -13.203125 L 5.609375 -6.046875 C 5.578125 -5.773438 5.5625 -5.585938 5.5625 -5.484375 C 5.5625 -4.890625 5.738281 -4.398438 6.09375 -4.015625 C 6.445312 -3.640625 6.921875 -3.453125 7.515625 -3.453125 C 8.140625 -3.453125 8.664062 -3.660156 9.09375 -4.078125 C 9.53125 -4.503906 9.804688 -5.03125 9.921875 -5.65625 L 11.34375 -13.203125 L 15.59375 -13.203125 L 14.140625 -5.53125 C 13.804688 -3.789062 13.070312 -2.378906 11.9375 -1.296875 C 10.800781 -0.210938 9.285156 0.328125 7.390625 0.328125 Z M 7.390625 0.328125 "/></g></g></g><g fill="#ffffff" fill-opacity="1"><g transform="translate(69.148713, 23.69281)"><g><path d="M 11.9375 -13.359375 L 11.21875 -9.59375 L 9.3125 -9.59375 C 8.4375 -9.59375 7.6875 -9.347656 7.0625 -8.859375 C 6.4375 -8.367188 6.035156 -7.691406 5.859375 -6.828125 L 4.578125 0 L 0.328125 0 L 2.890625 -13.203125 L 6.8125 -13.203125 L 6.578125 -12.015625 C 7.492188 -12.910156 8.703125 -13.359375 10.203125 -13.359375 Z M 11.9375 -13.359375 "/></g></g></g><g fill="#ffffff" fill-opacity="1"><g transform="translate(79.074344, 23.69281)"><g><path d="M 8.40625 -13.53125 C 9.675781 -13.53125 10.800781 -13.253906 11.78125 -12.703125 C 12.757812 -12.160156 13.519531 -11.414062 14.0625 -10.46875 C 14.601562 -9.519531 14.875 -8.476562 14.875 -7.34375 C 14.875 -6.644531 14.78125 -5.984375 14.59375 -5.359375 L 4.78125 -5.359375 C 4.875 -4.546875 5.15625 -3.921875 5.625 -3.484375 C 6.101562 -3.054688 6.734375 -2.84375 7.515625 -2.84375 C 8.109375 -2.84375 8.632812 -2.96875 9.09375 -3.21875 C 9.550781 -3.476562 9.878906 -3.796875 10.078125 -4.171875 L 14.25 -4.171875 C 13.707031 -2.878906 12.820312 -1.804688 11.59375 -0.953125 C 10.363281 -0.0976562 8.90625 0.328125 7.21875 0.328125 C 5.976562 0.328125 4.863281 0.0664062 3.875 -0.453125 C 2.882812 -0.984375 2.101562 -1.71875 1.53125 -2.65625 C 0.96875 -3.59375 0.6875 -4.65625 0.6875 -5.84375 C 0.6875 -7.175781 1.015625 -8.429688 1.671875 -9.609375 C 2.335938 -10.785156 3.257812 -11.734375 4.4375 -12.453125 C 5.613281 -13.171875 6.9375 -13.53125 8.40625 -13.53125 Z M 8.25 -10.328125 C 7.507812 -10.328125 6.867188 -10.113281 6.328125 -9.6875 C 5.796875 -9.269531 5.394531 -8.707031 5.125 -8 L 10.921875 -8 C 10.867188 -8.695312 10.613281 -9.257812 10.15625 -9.6875 C 9.695312 -10.113281 9.0625 -10.328125 8.25 -10.328125 Z M 8.25 -10.328125 "/></g></g></g><g fill="#8dc641" fill-opacity="1"><g transform="translate(19.321208, 29.595882)"><g><path d="M 3.4375 -0.84375 L 3.875 -3.359375 L 4.78125 -3.359375 L 4.09375 0 L 2.875 0 L 2.40625 -1.828125 L 1.9375 0 L 0.734375 0 L 0.046875 -3.359375 L 0.953125 -3.359375 L 1.390625 -0.84375 L 2 -3.359375 L 2.78125 -3.359375 Z M 3.4375 -0.84375 "/></g></g></g><g fill="#8dc641" fill-opacity="1"><g transform="translate(25.456055, 29.595882)"><g><path d="M 3.578125 0 L 2.640625 0 L 2.40625 -0.6875 L 1.21875 -0.6875 L 0.984375 0 L 0.046875 0 L 1.140625 -3.359375 L 2.484375 -3.359375 Z M 2.265625 -1.375 L 1.8125 -2.765625 L 1.359375 -1.375 Z M 2.265625 -1.375 "/></g></g></g><g fill="#8dc641" fill-opacity="1"><g transform="translate(30.381569, 29.595882)"><g><path d="M 1.875 0 L 0.984375 0 L 1.421875 -2.6875 L 0.4375 -2.6875 L 0.546875 -3.359375 L 3.375 -3.359375 L 3.265625 -2.6875 L 2.296875 -2.6875 Z M 1.875 0 "/></g></g></g><g fill="#8dc641" fill-opacity="1"><g transform="translate(34.66034, 29.595882)"><g><path d="M 1.90625 -0.640625 C 2.132812 -0.640625 2.3125 -0.679688 2.4375 -0.765625 C 2.570312 -0.859375 2.640625 -0.988281 2.640625 -1.15625 L 3.546875 -1.15625 C 3.492188 -0.789062 3.320312 -0.5 3.03125 -0.28125 C 2.738281 -0.0703125 2.363281 0.03125 1.90625 0.03125 C 1.320312 0.03125 0.867188 -0.160156 0.546875 -0.546875 C 0.285156 -0.859375 0.15625 -1.226562 0.15625 -1.65625 C 0.15625 -2.101562 0.285156 -2.492188 0.546875 -2.828125 C 0.867188 -3.222656 1.320312 -3.421875 1.90625 -3.421875 C 2.363281 -3.421875 2.738281 -3.3125 3.03125 -3.09375 C 3.320312 -2.882812 3.492188 -2.597656 3.546875 -2.234375 L 2.640625 -2.234375 C 2.640625 -2.398438 2.578125 -2.523438 2.453125 -2.609375 C 2.328125 -2.703125 2.148438 -2.75 1.921875 -2.75 C 1.660156 -2.75 1.445312 -2.644531 1.28125 -2.4375 C 1.125 -2.226562 1.046875 -1.96875 1.046875 -1.65625 C 1.046875 -1.351562 1.125 -1.109375 1.28125 -0.921875 C 1.4375 -0.734375 1.644531 -0.640625 1.90625 -0.640625 Z M 1.90625 -0.640625 "/></g></g></g><g fill="#8dc641" fill-opacity="1"><g transform="translate(39.672959, 29.595882)"><g><path d="M 1.15625 0 L 0.265625 0 L 0.265625 -3.359375 L 1.15625 -3.359375 L 1.15625 -1.96875 L 2.375 -1.96875 L 2.375 -3.359375 L 3.265625 -3.359375 L 3.265625 0 L 2.375 0 L 2.375 -1.265625 L 1.15625 -1.265625 Z M 1.15625 0 "/></g></g></g><g fill="#27aae2" fill-opacity="1"><g transform="translate(47.399381, 29.595882)"><g><path d="M 2.03125 0 L 1.265625 -2.640625 L 1.09375 0 L 0.21875 0 L 0.3125 -1.6875 C 0.351562 -2.363281 0.382812 -2.921875 0.40625 -3.359375 L 1.921875 -3.359375 L 2.4375 -1.390625 L 2.96875 -3.359375 L 4.46875 -3.359375 C 4.5 -2.921875 4.535156 -2.363281 4.578125 -1.6875 L 4.671875 0 L 3.796875 0 L 3.625 -2.640625 L 2.859375 0 Z M 2.03125 0 "/></g></g></g><g fill="#27aae2" fill-opacity="1"><g transform="translate(53.597535, 29.595882)"><g><path d="M 1.890625 0.03125 C 1.296875 0.03125 0.84375 -0.160156 0.53125 -0.546875 C 0.28125 -0.859375 0.15625 -1.226562 0.15625 -1.65625 C 0.15625 -2.101562 0.28125 -2.492188 0.53125 -2.828125 C 0.84375 -3.222656 1.296875 -3.421875 1.890625 -3.421875 C 2.472656 -3.421875 2.925781 -3.222656 3.25 -2.828125 C 3.488281 -2.503906 3.609375 -2.113281 3.609375 -1.65625 C 3.609375 -1.21875 3.488281 -0.847656 3.25 -0.546875 C 2.925781 -0.160156 2.472656 0.03125 1.890625 0.03125 Z M 1.265625 -0.921875 C 1.421875 -0.734375 1.628906 -0.640625 1.890625 -0.640625 C 2.148438 -0.640625 2.351562 -0.734375 2.5 -0.921875 C 2.65625 -1.109375 2.734375 -1.351562 2.734375 -1.65625 C 2.734375 -1.976562 2.65625 -2.238281 2.5 -2.4375 C 2.351562 -2.644531 2.144531 -2.75 1.875 -2.75 C 1.613281 -2.75 1.410156 -2.644531 1.265625 -2.4375 C 1.117188 -2.238281 1.046875 -1.976562 1.046875 -1.65625 C 1.046875 -1.351562 1.117188 -1.109375 1.265625 -0.921875 Z M 1.265625 -0.921875 "/></g></g></g><g fill="#27aae2" fill-opacity="1"><g transform="translate(58.677053, 29.595882)"><g><path d="M 1.125 0 L 0.515625 -3.359375 L 1.484375 -3.359375 L 1.90625 -0.71875 L 3.15625 -3.359375 L 4.125 -3.359375 L 2.453125 0 Z M 1.125 0 "/></g></g></g><g fill="#27aae2" fill-opacity="1"><g transform="translate(63.675197, 29.595882)"><g><path d="M 0.28125 -3.359375 L 1.15625 -3.359375 L 1.15625 0 L 0.28125 0 Z M 0.28125 -3.359375 "/></g></g></g><g fill="#27aae2" fill-opacity="1"><g transform="translate(66.420332, 29.595882)"><g><path d="M 0.265625 -3.359375 L 2.8125 -3.359375 L 2.8125 -2.6875 L 1.15625 -2.6875 L 1.15625 -2.015625 L 2.40625 -2.015625 L 2.40625 -1.328125 L 1.15625 -1.328125 L 1.15625 -0.671875 L 2.8125 -0.671875 L 2.8125 0 L 0.265625 0 Z M 0.265625 -3.359375 "/></g></g></g><g fill="#f15b27" fill-opacity="1"><g transform="translate(75.618872, 29.595882)"><g><path d="M 0.265625 -3.359375 L 2.796875 -3.359375 L 2.796875 -2.6875 L 1.15625 -2.6875 L 1.15625 -1.84375 L 2.5625 -1.84375 L 2.5625 -1.15625 L 1.15625 -1.15625 L 1.15625 0 L 0.265625 0 Z M 0.265625 -3.359375 "/></g></g></g><g fill="#f15b27" fill-opacity="1"><g transform="translate(79.852683, 29.595882)"><g><path d="M 3.53125 -2.171875 C 3.5 -1.972656 3.414062 -1.78125 3.28125 -1.59375 C 3.15625 -1.40625 2.984375 -1.25 2.765625 -1.125 L 3.125 0 L 2.140625 0 L 1.84375 -0.984375 L 1.3125 -0.984375 L 1.15625 0 L 0.265625 0 L 0.796875 -3.359375 L 2.359375 -3.359375 C 2.804688 -3.359375 3.125 -3.242188 3.3125 -3.015625 C 3.507812 -2.785156 3.582031 -2.503906 3.53125 -2.171875 Z M 1.421875 -1.65625 L 2.046875 -1.65625 C 2.203125 -1.65625 2.332031 -1.703125 2.4375 -1.796875 C 2.550781 -1.890625 2.617188 -2.015625 2.640625 -2.171875 C 2.671875 -2.328125 2.644531 -2.453125 2.5625 -2.546875 C 2.476562 -2.640625 2.363281 -2.6875 2.21875 -2.6875 L 1.578125 -2.6875 Z M 1.421875 -1.65625 "/></g></g></g><g fill="#f15b27" fill-opacity="1"><g transform="translate(84.513621, 29.595882)"><g><path d="M 0.265625 -3.359375 L 2.8125 -3.359375 L 2.8125 -2.6875 L 1.15625 -2.6875 L 1.15625 -2.015625 L 2.40625 -2.015625 L 2.40625 -1.328125 L 1.15625 -1.328125 L 1.15625 -0.671875 L 2.8125 -0.671875 L 2.8125 0 L 0.265625 0 Z M 0.265625 -3.359375 "/></g></g></g><g fill="#f15b27" fill-opacity="1"><g transform="translate(88.812618, 29.595882)"><g><path d="M 0.265625 -3.359375 L 2.8125 -3.359375 L 2.8125 -2.6875 L 1.15625 -2.6875 L 1.15625 -2.015625 L 2.40625 -2.015625 L 2.40625 -1.328125 L 1.15625 -1.328125 L 1.15625 -0.671875 L 2.8125 -0.671875 L 2.8125 0 L 0.265625 0 Z M 0.265625 -3.359375 "/></g></g></g></svg>